HIERARCHY
ROOT Hips
{
	OFFSET 0.00000 0.00000 0.00000
	CHANNELS 6 Xposition Yposition Zposition Zrotation Yrotation Xrotation 
	JOINT LHipJoint
	{
		OFFSET 0 0 0
		CHANNELS 3 Zrotation Yrotation Xrotation
		JOINT LeftUpLeg
		{
			OFFSET 1.59801 -1.77853 0.57028
			CHANNELS 3 Zrotation Yrotation Xrotation
			JOINT LeftLeg
			{
				OFFSET 2.39439 -6.57854 0.00000
				CHANNELS 3 Zrotation Yrotation Xrotation
				JOINT LeftFoot
				{
					OFFSET 2.69334 -7.39989 0.00000
					CHANNELS 3 Zrotation Yrotation Xrotation
					JOINT LeftToeBase
					{
						OFFSET 0.09553 -0.26245 1.73747
						CHANNELS 3 Zrotation Yrotation Xrotation
						End Site
						{
							OFFSET 0.00000 -0.00000 0.89391
						}
					}
				}
			}
		}
	}
	JOINT RHipJoint
	{
		OFFSET 0 0 0
		CHANNELS 3 Zrotation Yrotation Xrotation
		JOINT RightUpLeg
		{
			OFFSET -1.54704 -1.77852 0.57028
			CHANNELS 3 Zrotation Yrotation Xrotation
			JOINT RightLeg
			{
				OFFSET -2.40286 -6.60180 0.00000
				CHANNELS 3 Zrotation Yrotation Xrotation
				JOINT RightFoot
				{
					OFFSET -2.63873 -7.24984 0.00000
					CHANNELS 3 Zrotation Yrotation Xrotation
					JOINT RightToeBase
					{
						OFFSET -0.15631 -0.42945 1.84436
						CHANNELS 3 Zrotation Yrotation Xrotation
						End Site
						{
							OFFSET -0.00000 -0.00000 0.95734
						}
					}
				}
			}
		}
	}
	JOINT LowerBack
	{
		OFFSET 0 0 0
		CHANNELS 3 Zrotation Yrotation Xrotation
		JOINT Spine
		{
			OFFSET -0.00436 1.89866 -0.04018
			CHANNELS 3 Zrotation Yrotation Xrotation
			JOINT Spine1
			{
				OFFSET 0.02031 1.88273 0.09634
				CHANNELS 3 Zrotation Yrotation Xrotation
				JOINT Neck
				{
					OFFSET 0 0 0
					CHANNELS 3 Zrotation Yrotation Xrotation
					JOINT Neck1
					{
						OFFSET -0.13105 1.89371 0.23083
						CHANNELS 3 Zrotation Yrotation Xrotation
						JOINT Head
						{
							OFFSET 0.17062 1.83990 -0.54062
							CHANNELS 3 Zrotation Yrotation Xrotation
							End Site
							{
								OFFSET 0.04576 1.94782 -0.21839
							}
						}
					}
				}
				JOINT LeftShoulder
				{
					OFFSET 0 0 0
					CHANNELS 3 Zrotation Yrotation Xrotation
					JOINT LeftArm
					{
						OFFSET 3.12424 1.09204 0.22226
						CHANNELS 3 Zrotation Yrotation Xrotation
						JOINT LeftForeArm
						{
							OFFSET 5.29277 -0.00000 0.00000
							CHANNELS 3 Zrotation Yrotation Xrotation
							JOINT LeftHand
							{
								OFFSET 2.85226 -0.00000 0.00000
								CHANNELS 3 Zrotation Yrotation Xrotation
								JOINT LeftFingerBase
								{
									OFFSET 0 0 0
									CHANNELS 3 Zrotation Yrotation Xrotation
									JOINT LeftHandIndex1
									{
										OFFSET 0.60210 -0.00000 0.00000
										CHANNELS 3 Zrotation Yrotation Xrotation
										End Site
										{
											OFFSET 0.48543 -0.00000 0.00000
										}
									}
								}
								JOINT LThumb
								{
									OFFSET 0 0 0
									CHANNELS 3 Zrotation Yrotation Xrotation
									End Site
									{
										OFFSET 0.49284 -0.00000 0.49284
									}
								}
							}
						}
					}
				}
				JOINT RightShoulder
				{
					OFFSET 0 0 0
					CHANNELS 3 Zrotation Yrotation Xrotation
					JOINT RightArm
					{
						OFFSET -2.91709 1.01504 0.30199
						CHANNELS 3 Zrotation Yrotation Xrotation
						JOINT RightForeArm
						{
							OFFSET -5.13304 -0.00000 0.00000
							CHANNELS 3 Zrotation Yrotation Xrotation
							JOINT RightHand
							{
								OFFSET -2.74305 -0.00000 0.00000
								CHANNELS 3 Zrotation Yrotation Xrotation
								JOINT RightFingerBase
								{
									OFFSET 0 0 0
									CHANNELS 3 Zrotation Yrotation Xrotation
									JOINT RightHandIndex1
									{
										OFFSET -0.76798 -0.00000 0.00000
										CHANNELS 3 Zrotation Yrotation Xrotation
										End Site
										{
											OFFSET -0.61916 -0.00000 0.00000
										}
									}
								}
								JOINT RThumb
								{
									OFFSET 0 0 0
									CHANNELS 3 Zrotation Yrotation Xrotation
									End Site
									{
										OFFSET -0.62862 -0.00000 0.62862
									}
								}
							}
						}
					}
				}
			}
		}
	}
}
MOTION
Frames: 16
Frame Time: .0083333
0.2969 17.4533 -0.0608 -1.4538 -0.0055 3.9956 0.0000 0.0000 0.0000 -19.1052 -18.6873 2.6339 0.6631 5.2081 14.5029 0.3919 10.1595 -19.5402 0.6456 -5.1401 -14.3085 0.0000 0.0000 0.0000 0.0000 0.0000 0.0000 0.0000 0.0000 0.0000 -0.0000 -0.0000 0.0000 -0.0000 -0.0000 0.0000 -0.8760 0.3435 -0.3038 0.8366 0.4690 -3.6494 1.3381 0.2761 -3.5946 -13.9412 -10.5782 -17.2424 12.7579 -15.6336 29.8339 4.6160 -6.7147 15.6607 0.0000 -0.0000 0.0000 -92.0916 0.9614 30.5790 7.9564 -13.4821 -0.9419 -0.0000 -0.0000 25.6246 2.5200 24.6054 1.0498 -7.1250 0.0000 -0.0000 -27.4212 52.4359 -5.3459 0.0000 -0.0000 0.0000 88.2699 -9.1744 30.9854 -13.0909 21.4203 -2.4864 0.0000 0.0000 5.9527 0.3865 13.4205 0.0897 7.1250 -0.0000 -0.0000 18.8746 -16.9625 13.2934
0.2976 17.4541 -0.0599 -1.4233 -0.0037 4.0130 0.0000 0.0000 0.0000 -19.1292 -18.6310 2.6047 0.6608 5.1990 14.4770 0.3819 10.1936 -19.4677 0.6642 -5.2121 -14.5146 0.0000 0.0000 0.0000 0.0000 0.0000 0.0000 0.0000 0.0000 0.0000 -0.0000 -0.0000 0.0000 -0.0000 -0.0000 0.0000 -0.8915 0.3459 -0.3201 0.8418 0.4722 -3.6406 1.3522 0.2781 -3.5765 -13.9779 -10.5780 -17.2818 12.7478 -15.6114 29.8341 4.6213 -6.7086 15.6684 -0.0000 -0.0000 0.0000 -92.1029 0.9707 30.6492 8.0049 -13.5608 -0.9533 -0.0000 -0.0000 25.4730 2.5691 24.3499 1.0599 -7.1250 0.0000 -0.0000 -27.2188 52.2180 -5.1494 -0.0000 -0.0000 0.0000 88.2781 -9.1190 30.7855 -13.0748 21.3967 -2.4805 0.0000 0.0000 6.1823 0.4293 13.3887 0.0994 7.1250 -0.0000 -0.0000 18.9059 -16.9935 13.3045
0.2970 17.4547 -0.0597 -1.3903 -0.0199 4.0286 0.0000 0.0000 0.0000 -19.1613 -18.6250 2.6213 0.6554 5.1783 14.4179 0.3725 10.2448 -19.4193 0.6906 -5.3125 -14.8021 0.0000 0.0000 0.0000 0.0000 0.0000 0.0000 0.0000 0.0000 0.0000 -0.0000 -0.0000 0.0000 -0.0000 -0.0000 0.0000 -0.9204 0.3449 -0.3336 0.8391 0.4704 -3.6287 1.3658 0.2778 -3.5567 -13.9586 -10.5595 -17.3516 12.7224 -15.5742 29.8610 4.6142 -6.6902 15.6849 -0.0000 -0.0000 0.0000 -92.1000 0.9385 30.6176 8.0112 -13.5710 -0.9547 -0.0000 -0.0000 25.4628 2.4306 24.7207 1.0170 -7.1250 0.0000 -0.0000 -27.5759 52.5226 -5.4412 -0.0000 -0.0000 0.0000 88.2825 -9.0567 30.7009 -13.0410 21.3472 -2.4682 0.0000 0.0000 6.2763 0.4435 13.4317 0.1030 7.1250 -0.0000 -0.0000 18.9109 -16.9532 13.3262
0.2961 17.4545 -0.0594 -1.3499 0.0072 4.0107 0.0000 0.0000 0.0000 -19.2046 -18.6231 2.6667 0.6505 5.1592 14.3631 0.3696 10.2828 -19.4280 0.7150 -5.4036 -15.0634 0.0000 0.0000 0.0000 0.0000 0.0000 0.0000 0.0000 0.0000 0.0000 -0.0000 -0.0000 0.0000 -0.0000 -0.0000 0.0000 -0.9608 0.3381 -0.2882 0.8320 0.4602 -3.6395 1.3812 0.2742 -3.5937 -13.9477 -10.5344 -17.3653 12.7119 -15.5408 29.9058 4.6171 -6.6751 15.7007 -0.0000 -0.0000 0.0000 -92.0641 0.9890 30.7454 8.0413 -13.6198 -0.9618 -0.0000 -0.0000 25.3680 2.1478 25.6945 0.9316 -7.1250 0.0000 -0.0000 -28.4629 53.3303 -6.2293 -0.0000 -0.0000 0.0000 88.3100 -9.0398 30.5240 -12.9949 21.2798 -2.4514 0.0000 0.0000 6.4273 0.5021 13.4498 0.1168 7.1250 -0.0000 -0.0000 18.9476 -16.9372 13.3624
0.2968 17.4543 -0.0574 -1.3175 0.0575 3.9996 0.0000 0.0000 0.0000 -19.2464 -18.6284 2.7249 0.6442 5.1348 14.2934 0.3741 10.2802 -19.4745 0.7099 -5.3849 -15.0098 0.0000 0.0000 0.0000 0.0000 0.0000 0.0000 0.0000 0.0000 0.0000 -0.0000 -0.0000 0.0000 -0.0000 -0.0000 0.0000 -0.9748 0.3223 -0.2416 0.8251 0.4384 -3.6659 1.3822 0.2641 -3.6469 -13.9521 -10.5289 -17.4031 12.6886 -15.5316 29.9932 4.6121 -6.6718 15.7471 -0.0000 -0.0000 0.0000 -92.0527 1.0568 30.8557 8.0669 -13.6613 -0.9679 -0.0000 -0.0000 25.2520 2.0142 26.3219 0.8934 -7.1250 0.0000 -0.0000 -29.0081 53.8549 -6.7537 -0.0000 -0.0000 0.0000 88.3102 -9.0824 30.4523 -12.9743 21.2496 -2.4440 0.0000 0.0000 6.4700 0.4580 13.5013 0.1069 7.1250 -0.0000 -0.0000 18.9135 -16.8876 13.3572
0.2978 17.4541 -0.0556 -1.2533 0.0967 4.0073 0.0000 0.0000 0.0000 -19.3207 -18.6216 2.7507 0.6386 5.1128 14.2305 0.3661 10.2710 -19.3770 0.7276 -5.4502 -15.1972 0.0000 0.0000 0.0000 0.0000 0.0000 0.0000 0.0000 0.0000 0.0000 -0.0000 -0.0000 0.0000 -0.0000 -0.0000 0.0000 -0.9917 0.3290 -0.2605 0.7866 0.4460 -3.6724 1.3519 0.2678 -3.6429 -14.0077 -10.5497 -17.3502 12.7552 -15.5728 29.9649 4.6417 -6.6901 15.7437 -0.0000 -0.0000 0.0000 -92.0081 1.0678 30.9996 8.0664 -13.6604 -0.9677 -0.0000 -0.0000 25.1784 2.1075 26.4267 0.9383 -7.1250 0.0000 -0.0000 -28.9918 53.9633 -6.8294 -0.0000 -0.0000 0.0000 88.3415 -9.0927 30.3003 -12.9637 21.2340 -2.4401 0.0000 0.0000 6.5612 0.4587 13.5716 0.1076 7.1250 -0.0000 -0.0000 18.9070 -16.8211 13.3813
0.2978 17.4538 -0.0553 -1.2212 0.1188 4.0070 0.0000 0.0000 0.0000 -19.3560 -18.6132 2.7819 0.6339 5.0941 14.1772 0.3656 10.2252 -19.3228 0.7077 -5.3768 -14.9866 0.0000 0.0000 0.0000 0.0000 0.0000 0.0000 0.0000 0.0000 0.0000 -0.0000 -0.0000 0.0000 -0.0000 -0.0000 0.0000 -1.0084 0.3385 -0.2426 0.7746 0.4579 -3.6776 1.3485 0.2742 -3.6588 -14.0709 -10.5627 -17.3487 12.8149 -15.5964 29.9763 4.6736 -6.6998 15.7679 -0.0000 -0.0000 0.0000 -92.0175 1.0339 30.8891 8.0441 -13.6244 -0.9625 -0.0000 -0.0000 25.3309 2.1173 26.5377 0.9463 -7.1250 0.0000 -0.0000 -29.0586 54.0618 -6.9201 -0.0000 -0.0000 0.0000 88.3583 -9.0792 30.0766 -12.9436 21.2045 -2.4328 0.0000 0.0000 6.6736 0.4725 13.6114 0.1112 7.1250 -0.0000 -0.0000 18.9121 -16.7838 13.4018
0.2986 17.4549 -0.0552 -1.1848 0.1319 4.0258 0.0000 0.0000 0.0000 -19.3887 -18.6200 2.7849 0.6295 5.0770 14.1282 0.3504 10.2828 -19.2168 0.7211 -5.4264 -15.1289 0.0000 0.0000 0.0000 0.0000 0.0000 0.0000 0.0000 0.0000 0.0000 -0.0000 -0.0000 0.0000 -0.0000 -0.0000 0.0000 -1.0304 0.3275 -0.2224 0.7754 0.4428 -3.7059 1.3620 0.2678 -3.6993 -14.0278 -10.5414 -17.3122 12.7384 -15.5526 29.9705 4.6440 -6.6877 15.7338 -0.0000 -0.0000 0.0000 -92.0299 1.0717 30.8254 8.0548 -13.6417 -0.9650 -0.0000 -0.0000 25.3690 2.0382 26.5810 0.9123 -7.1250 0.0000 -0.0000 -29.1629 54.0850 -6.9657 -0.0000 -0.0000 0.0000 88.3392 -9.0995 29.9294 -12.9434 21.2043 -2.4328 0.0000 0.0000 6.7927 0.6348 13.6290 0.1496 7.1250 -0.0000 -0.0000 19.0165 -16.7705 13.4909
0.2996 17.4549 -0.0527 -1.1524 0.1389 4.0095 0.0000 0.0000 0.0000 -19.4295 -18.6110 2.8162 0.6282 5.0717 14.1133 0.3407 10.2925 -19.1200 0.7379 -5.4878 -15.3052 0.0000 0.0000 0.0000 0.0000 0.0000 0.0000 0.0000 0.0000 0.0000 -0.0000 -0.0000 0.0000 -0.0000 -0.0000 0.0000 -1.0388 0.3281 -0.1890 0.7646 0.4427 -3.7239 1.3553 0.2682 -3.7369 -13.9435 -10.5211 -17.2875 12.6331 -15.5163 29.9932 4.5942 -6.6766 15.7095 -0.0000 0.0000 0.0000 -91.9885 1.1073 31.0145 8.0532 -13.6391 -0.9646 -0.0000 -0.0000 25.1761 1.9945 26.5969 0.8932 -7.1250 0.0000 -0.0000 -29.2152 54.0908 -6.9842 -0.0000 0.0000 0.0000 88.3463 -9.1220 29.7699 -12.9543 21.2202 -2.4367 0.0000 0.0000 6.8663 0.7679 13.5845 0.1804 7.1250 -0.0000 -0.0000 19.1082 -16.8152 13.5442
0.2987 17.4541 -0.0501 -1.1192 0.1607 3.9933 0.0000 0.0000 0.0000 -19.4757 -18.6181 2.8472 0.6281 5.0711 14.1114 0.3448 10.3136 -19.1880 0.7406 -5.4975 -15.3330 0.0000 0.0000 0.0000 0.0000 0.0000 0.0000 0.0000 0.0000 0.0000 -0.0000 -0.0000 0.0000 -0.0000 -0.0000 0.0000 -1.0808 0.3197 -0.1965 0.7717 0.4311 -3.7062 1.3867 0.2636 -3.7144 -13.9217 -10.5256 -17.3060 12.5783 -15.5125 30.0260 4.5681 -6.6778 15.7194 0.0000 0.0000 0.0000 -92.0101 1.0689 30.9865 8.0348 -13.6092 -0.9603 -0.0000 -0.0000 25.1968 2.1109 26.6955 0.9487 -7.1250 0.0000 -0.0000 -29.1737 54.1981 -7.0525 0.0000 0.0000 0.0000 88.3280 -9.0678 29.5807 -12.9272 21.1805 -2.4269 0.0000 0.0000 7.0236 0.9060 13.6336 0.2136 7.1250 -0.0000 -0.0000 19.1935 -16.7717 13.6318
0.2980 17.4535 -0.0475 -1.1899 0.1677 3.9845 0.0000 0.0000 0.0000 -19.4058 -18.6052 2.8663 0.6287 5.0737 14.1188 0.3520 10.3409 -19.2977 0.7618 -5.5739 -15.5529 0.0000 0.0000 0.0000 0.0000 0.0000 0.0000 0.0000 0.0000 0.0000 -0.0000 -0.0000 0.0000 -0.0000 -0.0000 0.0000 -1.0218 0.3113 -0.2345 0.8031 0.4221 -3.6860 1.3864 0.2574 -3.6714 -13.9008 -10.5185 -17.2971 12.5659 -15.5045 30.0230 4.5614 -6.6740 15.7106 -0.0000 -0.0000 0.0000 -92.0357 1.0233 30.7533 8.0260 -13.5950 -0.9582 -0.0000 -0.0000 25.5407 2.0400 26.8309 0.9211 -7.1250 0.0000 -0.0000 -29.3348 54.3027 -7.1748 -0.0000 -0.0000 0.0000 88.3070 -9.0257 29.5469 -12.9323 21.1880 -2.4288 0.0000 0.0000 7.0011 1.0575 13.5608 0.2480 7.1250 -0.0000 -0.0000 19.2999 -16.8432 13.6848
0.2983 17.4529 -0.0459 -1.1918 0.1625 3.9916 0.0000 0.0000 0.0000 -19.4047 -18.5962 2.8527 0.6300 5.0787 14.1331 0.3589 10.2450 -19.2702 0.7392 -5.4924 -15.3183 0.0000 0.0000 0.0000 0.0000 0.0000 0.0000 0.0000 0.0000 0.0000 -0.0000 -0.0000 0.0000 -0.0000 -0.0000 0.0000 -1.0027 0.3258 -0.2832 0.7978 0.4420 -3.6717 1.3699 0.2662 -3.6294 -13.9113 -10.5298 -17.2488 12.5913 -15.5303 29.9990 4.5690 -6.6854 15.6972 0.0000 0.0000 0.0000 -92.0177 1.0010 30.7158 8.0402 -13.6180 -0.9616 -0.0000 -0.0000 25.6499 1.8905 26.8771 0.8549 -7.1250 0.0000 -0.0000 -29.5081 54.3150 -7.2325 0.0000 0.0000 0.0000 88.3129 -9.0029 29.5164 -12.9341 21.1905 -2.4294 0.0000 0.0000 6.9570 1.0897 13.5783 0.2559 7.1250 -0.0000 -0.0000 19.3191 -16.8274 13.7073
0.2978 17.4530 -0.0448 -1.2268 0.1542 3.9974 0.0000 0.0000 0.0000 -19.3628 -18.6231 2.8388 0.6328 5.0899 14.1652 0.3805 10.0869 -19.3390 0.6370 -5.1065 -14.2125 0.0000 0.0000 0.0000 0.0000 0.0000 0.0000 0.0000 0.0000 0.0000 -0.0000 -0.0000 0.0000 -0.0000 -0.0000 0.0000 -0.9828 0.3250 -0.3006 0.8221 0.4422 -3.6659 1.3838 0.2660 -3.6136 -13.9365 -10.5279 -17.2186 12.6041 -15.5250 29.9827 4.5805 -6.6861 15.6858 -0.0000 -0.0000 0.0000 -92.0264 0.9584 30.5622 8.0190 -13.5837 -0.9566 -0.0000 -0.0000 25.8208 1.8513 26.7994 0.8349 -7.1250 0.0000 -0.0000 -29.4906 54.2404 -7.1716 -0.0000 -0.0000 0.0000 88.2728 -9.0151 29.6402 -12.9579 21.2255 -2.4380 0.0000 0.0000 6.8562 1.0404 13.5963 0.2446 7.1250 -0.0000 -0.0000 19.2851 -16.8094 13.6882
0.2982 17.4525 -0.0435 -1.2296 0.1548 3.9864 0.0000 0.0000 0.0000 -19.3745 -18.6679 2.8660 0.6331 5.0908 14.1679 0.3760 10.1862 -19.3954 0.6656 -5.2175 -14.5300 0.0000 0.0000 0.0000 0.0000 0.0000 0.0000 0.0000 0.0000 0.0000 -0.0000 -0.0000 0.0000 -0.0000 -0.0000 0.0000 -0.9797 0.3264 -0.2877 0.8352 0.4444 -3.6635 1.3955 0.2673 -3.6185 -13.9237 -10.5213 -17.2312 12.5786 -15.5122 30.0098 4.5709 -6.6814 15.6947 -0.0000 0.0000 0.0000 -92.0414 0.9308 30.6268 8.0114 -13.5714 -0.9548 -0.0000 -0.0000 25.8432 1.8194 26.8598 0.8222 -7.1250 0.0000 -0.0000 -29.5630 54.2868 -7.2266 -0.0000 0.0000 0.0000 88.2539 -9.0188 29.6521 -12.9525 21.2175 -2.4361 0.0000 0.0000 6.8189 1.0428 13.6006 0.2452 7.1250 -0.0000 -0.0000 19.2862 -16.8054 13.6909
0.2987 17.4531 -0.0423 -1.2321 0.1676 4.0130 0.0000 0.0000 0.0000 -19.3661 -18.6454 2.8266 0.6323 5.0879 14.1595 0.3531 10.3551 -19.3253 0.7766 -5.6266 -15.7046 0.0000 0.0000 0.0000 0.0000 0.0000 0.0000 0.0000 0.0000 0.0000 -0.0000 -0.0000 0.0000 -0.0000 -0.0000 0.0000 -0.9310 0.3495 -0.3179 0.8151 0.4757 -3.6672 1.3467 0.2810 -3.6056 -13.8693 -10.5348 -17.2431 12.5354 -15.5348 30.0236 4.5378 -6.6890 15.6969 -0.0000 0.0000 0.0000 -91.9957 0.9101 30.8385 7.9969 -13.5479 -0.9514 -0.0000 -0.0000 25.7910 1.8782 26.7503 0.8456 -7.1250 0.0000 -0.0000 -29.4311 54.2027 -7.1269 -0.0000 0.0000 0.0000 88.2919 -9.0320 29.6544 -12.9497 21.2135 -2.4351 0.0000 0.0000 6.7030 0.9155 13.5868 0.2151 7.1250 -0.0000 -0.0000 19.2044 -16.8160 13.6207
0.2989 17.4530 -0.0420 -1.2344 0.1776 4.0416 0.0000 0.0000 0.0000 -19.3533 -18.6390 2.8005 0.6315 5.0848 14.1506 0.3590 10.3093 -19.3407 0.7416 -5.5012 -15.3437 0.0000 0.0000 0.0000 0.0000 0.0000 0.0000 0.0000 0.0000 0.0000 -0.0000 -0.0000 0.0000 -0.0000 -0.0000 0.0000 -0.9053 0.3592 -0.3626 0.8171 0.4894 -3.6489 1.3343 0.2867 -3.5616 -13.9055 -10.5576 -17.2864 12.5767 -15.5684 30.0290 4.5527 -6.6998 15.7249 -0.0000 -0.0000 0.0000 -92.0019 0.8519 30.8916 7.9787 -13.5183 -0.9471 -0.0000 -0.0000 25.8446 2.1223 26.3089 0.9410 -7.1250 0.0000 -0.0000 -28.8977 53.8632 -6.7306 -0.0000 -0.0000 0.0000 88.2654 -9.0108 29.7725 -12.9852 21.2655 -2.4479 0.0000 0.0000 6.5303 0.9468 13.5813 0.2223 7.1250 -0.0000 -0.0000 19.2254 -16.8218 13.6349
